<svg id="logo_svg" width="400px" height="400px" style="background-color: rgb(156, 110, 110);"><g transform="rotate(-20 125 150) translate(125 150)"><svg stroke="currentColor" fill="currentColor" stroke-width="0" viewBox="0 0 448 512" height="1em" width="1em" xmlns="http://www.w3.org/2000/svg" style="color: rgb(45, 42, 50); font-size: 120px;"><path d="M416 32H32C14.4 32 0 46.4 0 64v384c0 17.6 14.4 32 32 32h384c17.6 0 32-14.4 32-32V64c0-17.6-14.4-32-32-32zm-64 257.4c0 49.4-11.4 82.6-103.8 82.6h-16.9c-44.1 0-62.4-14.9-70.4-38.8h-.9V368H96V136h64v74.7h1.1c4.6-30.5 39.7-38.8 69.7-38.8h17.3c92.4 0 103.8 33.1 103.8 82.5v35zm-64-28.9v22.9c0 21.7-3.4 33.8-38.4 33.8h-45.3c-28.9 0-44.1-6.5-44.1-35.7v-19c0-29.3 15.2-35.7 44.1-35.7h45.3c35-.2 38.4 12 38.4 33.7z"></path></svg></g><text x="90" y="110" text-anchor="start" style="font-size: 60px; fill: rgb(225, 155, 99); font-family: alphaecho;" transform="rotate(338, 90, 110)"><tspan x="90" dy="0.71em">Zappers</tspan></text><text x="155" y="255" text-anchor="start" style="fill: rgb(225, 155, 99); font-family: atomicage;"><tspan x="155" dy="0.71em">Zaps your mind</tspan></text></svg>